# Blender 5.0.1
# www.blender.org
mtllib beam.mtl
o Cylinder
v -0.000001 -1.123620 18.643839
v -0.000001 15.562867 7.092003
v 0.012843 -1.122900 18.644880
v 0.012843 15.563587 7.093044
v 0.025194 -1.120768 18.647961
v 0.025194 15.565720 7.096124
v 0.036576 -1.117305 18.652962
v 0.036576 15.569182 7.101127
v 0.046553 -1.112644 18.659695
v 0.046553 15.573843 7.107859
v 0.054741 -1.106965 18.667898
v 0.054741 15.579522 7.116062
v 0.060825 -1.100487 18.677256
v 0.060825 15.585999 7.125420
v 0.064572 -1.093456 18.687412
v 0.064572 15.593031 7.135575
v 0.065837 -1.086145 18.697971
v 0.065837 15.600342 7.146136
v 0.064572 -1.078834 18.708532
v 0.064572 15.607653 7.156696
v 0.060825 -1.071804 18.718687
v 0.060825 15.614683 7.166851
v 0.054741 -1.065326 18.728046
v 0.054741 15.621162 7.176210
v 0.046553 -1.059647 18.736248
v 0.046553 15.626841 7.184413
v 0.036576 -1.054986 18.742981
v 0.036576 15.631501 7.191145
v 0.025194 -1.051523 18.747984
v 0.025194 15.634964 7.196147
v 0.012843 -1.049391 18.751064
v 0.012843 15.637096 7.199228
v -0.000001 -1.048671 18.752104
v -0.000001 15.637816 7.200268
v -0.012846 -1.049391 18.751064
v -0.012846 15.637096 7.199228
v -0.025197 -1.051523 18.747984
v -0.025197 15.634964 7.196147
v -0.036579 -1.054986 18.742981
v -0.036579 15.631501 7.191145
v -0.046556 -1.059647 18.736248
v -0.046556 15.626841 7.184413
v -0.054744 -1.065326 18.728046
v -0.054744 15.621162 7.176210
v -0.060828 -1.071804 18.718687
v -0.060828 15.614683 7.166851
v -0.064575 -1.078834 18.708532
v -0.064575 15.607653 7.156696
v -0.065840 -1.086145 18.697971
v -0.065840 15.600342 7.146136
v -0.064575 -1.093456 18.687412
v -0.064575 15.593031 7.135575
v -0.060828 -1.100487 18.677256
v -0.060828 15.585999 7.125420
v -0.054744 -1.106965 18.667898
v -0.054744 15.579522 7.116062
v -0.046556 -1.112644 18.659695
v -0.046556 15.573843 7.107859
v -0.036579 -1.117305 18.652962
v -0.036579 15.569182 7.101127
v -0.025197 -1.120768 18.647961
v -0.025197 15.565720 7.096124
v -0.012846 -1.122900 18.644880
v -0.012846 15.563587 7.093044
vn -0.0000 -0.5692 -0.8222
vn 0.1951 -0.5583 -0.8064
vn 0.3826 -0.5259 -0.7596
vn 0.5556 -0.4733 -0.6836
vn 0.7071 -0.4025 -0.5814
vn 0.8315 -0.3162 -0.4568
vn 0.9239 -0.2178 -0.3147
vn 0.9808 -0.1110 -0.1604
vn 0.9808 -0.1111 -0.1604
vn 1.0000 -0.0000 -0.0000
vn 0.9808 0.1111 0.1604
vn 0.9239 0.2178 0.3146
vn 0.8315 0.3162 0.4568
vn 0.7071 0.4025 0.5814
vn 0.5556 0.4733 0.6836
vn 0.3827 0.5259 0.7596
vn 0.1951 0.5583 0.8064
vn -0.0000 0.5692 0.8222
vn -0.1951 0.5583 0.8064
vn -0.3827 0.5259 0.7596
vn -0.5556 0.4733 0.6836
vn -0.7071 0.4025 0.5814
vn -0.8315 0.3162 0.4568
vn -0.9239 0.2178 0.3146
vn -0.9808 0.1111 0.1604
vn -0.9808 0.1110 0.1604
vn -1.0000 -0.0000 -0.0000
vn -0.9808 -0.1110 -0.1604
vn -0.9808 -0.1111 -0.1604
vn -0.9239 -0.2178 -0.3147
vn -0.8315 -0.3162 -0.4568
vn -0.7071 -0.4025 -0.5814
vn -0.5556 -0.4733 -0.6836
vn -0.3826 -0.5259 -0.7596
vn -0.0000 0.8222 -0.5692
vn -0.1951 -0.5583 -0.8064
vn -0.0000 -0.8222 0.5692
vt 1.000000 0.500000
vt 1.000000 1.000000
vt 0.968750 1.000000
vt 0.968750 0.500000
vt 0.937500 1.000000
vt 0.937500 0.500000
vt 0.906250 1.000000
vt 0.906250 0.500000
vt 0.875000 1.000000
vt 0.875000 0.500000
vt 0.843750 1.000000
vt 0.843750 0.500000
vt 0.812500 1.000000
vt 0.812500 0.500000
vt 0.781250 1.000000
vt 0.781250 0.500000
vt 0.750000 1.000000
vt 0.750000 0.500000
vt 0.718750 1.000000
vt 0.718750 0.500000
vt 0.687500 1.000000
vt 0.687500 0.500000
vt 0.656250 1.000000
vt 0.656250 0.500000
vt 0.625000 1.000000
vt 0.625000 0.500000
vt 0.593750 1.000000
vt 0.593750 0.500000
vt 0.562500 1.000000
vt 0.562500 0.500000
vt 0.531250 1.000000
vt 0.531250 0.500000
vt 0.500000 1.000000
vt 0.500000 0.500000
vt 0.468750 1.000000
vt 0.468750 0.500000
vt 0.437500 1.000000
vt 0.437500 0.500000
vt 0.406250 1.000000
vt 0.406250 0.500000
vt 0.375000 1.000000
vt 0.375000 0.500000
vt 0.343750 1.000000
vt 0.343750 0.500000
vt 0.312500 1.000000
vt 0.312500 0.500000
vt 0.281250 1.000000
vt 0.281250 0.500000
vt 0.250000 1.000000
vt 0.250000 0.500000
vt 0.218750 1.000000
vt 0.218750 0.500000
vt 0.187500 1.000000
vt 0.187500 0.500000
vt 0.156250 1.000000
vt 0.156250 0.500000
vt 0.125000 1.000000
vt 0.125000 0.500000
vt 0.093750 1.000000
vt 0.093750 0.500000
vt 0.062500 1.000000
vt 0.062500 0.500000
vt 0.296822 0.485388
vt 0.250000 0.490000
vt 0.203178 0.485388
vt 0.158156 0.471731
vt 0.116663 0.449553
vt 0.080294 0.419706
vt 0.050447 0.383337
vt 0.028269 0.341844
vt 0.014612 0.296822
vt 0.010000 0.250000
vt 0.014612 0.203178
vt 0.028269 0.158156
vt 0.050447 0.116663
vt 0.080294 0.080294
vt 0.116663 0.050447
vt 0.158156 0.028269
vt 0.203178 0.014612
vt 0.250000 0.010000
vt 0.296822 0.014612
vt 0.341844 0.028269
vt 0.383337 0.050447
vt 0.419706 0.080294
vt 0.449553 0.116663
vt 0.471731 0.158156
vt 0.485388 0.203178
vt 0.490000 0.250000
vt 0.485388 0.296822
vt 0.471731 0.341844
vt 0.449553 0.383337
vt 0.419706 0.419706
vt 0.383337 0.449553
vt 0.341844 0.471731
vt 0.031250 1.000000
vt 0.031250 0.500000
vt 0.000000 1.000000
vt 0.000000 0.500000
vt 0.750000 0.490000
vt 0.796822 0.485388
vt 0.841844 0.471731
vt 0.883337 0.449553
vt 0.919706 0.419706
vt 0.949553 0.383337
vt 0.971731 0.341844
vt 0.985388 0.296822
vt 0.990000 0.250000
vt 0.985388 0.203178
vt 0.971731 0.158156
vt 0.949553 0.116663
vt 0.919706 0.080294
vt 0.883337 0.050447
vt 0.841844 0.028269
vt 0.796822 0.014612
vt 0.750000 0.010000
vt 0.703178 0.014612
vt 0.658156 0.028269
vt 0.616663 0.050447
vt 0.580294 0.080294
vt 0.550447 0.116663
vt 0.528269 0.158156
vt 0.514612 0.203178
vt 0.510000 0.250000
vt 0.514612 0.296822
vt 0.528269 0.341844
vt 0.550447 0.383337
vt 0.580294 0.419706
vt 0.616663 0.449553
vt 0.658156 0.471731
vt 0.703178 0.485388
s 1
usemtl M_BemaLight2
f 1/1/1 2/2/1 4/3/2 3/4/2
f 3/4/2 4/3/2 6/5/3 5/6/3
f 5/6/3 6/5/3 8/7/4 7/8/4
f 7/8/4 8/7/4 10/9/5 9/10/5
f 9/10/5 10/9/5 12/11/6 11/12/6
f 11/12/6 12/11/6 14/13/7 13/14/7
f 13/14/7 14/13/7 16/15/8 15/16/9
f 15/16/9 16/15/8 18/17/10 17/18/10
f 17/18/10 18/17/10 20/19/11 19/20/11
f 19/20/11 20/19/11 22/21/12 21/22/12
f 21/22/12 22/21/12 24/23/13 23/24/13
f 23/24/13 24/23/13 26/25/14 25/26/14
f 25/26/14 26/25/14 28/27/15 27/28/15
f 27/28/15 28/27/15 30/29/16 29/30/16
f 29/30/16 30/29/16 32/31/17 31/32/17
f 31/32/17 32/31/17 34/33/18 33/34/18
f 33/34/18 34/33/18 36/35/19 35/36/19
f 35/36/19 36/35/19 38/37/20 37/38/20
f 37/38/20 38/37/20 40/39/21 39/40/21
f 39/40/21 40/39/21 42/41/22 41/42/22
f 41/42/22 42/41/22 44/43/23 43/44/23
f 43/44/23 44/43/23 46/45/24 45/46/24
f 45/46/24 46/45/24 48/47/25 47/48/26
f 47/48/26 48/47/25 50/49/27 49/50/27
f 49/50/27 50/49/27 52/51/28 51/52/29
f 51/52/29 52/51/28 54/53/30 53/54/30
f 53/54/30 54/53/30 56/55/31 55/56/31
f 55/56/31 56/55/31 58/57/32 57/58/32
f 57/58/32 58/57/32 60/59/33 59/60/33
f 59/60/33 60/59/33 62/61/34 61/62/34
f 4/63/35 2/64/35 64/65/35 62/66/35 60/67/35 58/68/35 56/69/35 54/70/35 52/71/35 50/72/35 48/73/35 46/74/35 44/75/35 42/76/35 40/77/35 38/78/35 36/79/35 34/80/35 32/81/35 30/82/35 28/83/35 26/84/35 24/85/35 22/86/35 20/87/35 18/88/35 16/89/35 14/90/35 12/91/35 10/92/35 8/93/35 6/94/35
f 61/62/34 62/61/34 64/95/36 63/96/36
f 63/96/36 64/95/36 2/97/1 1/98/1
f 1/99/37 3/100/37 5/101/37 7/102/37 9/103/37 11/104/37 13/105/37 15/106/37 17/107/37 19/108/37 21/109/37 23/110/37 25/111/37 27/112/37 29/113/37 31/114/37 33/115/37 35/116/37 37/117/37 39/118/37 41/119/37 43/120/37 45/121/37 47/122/37 49/123/37 51/124/37 53/125/37 55/126/37 57/127/37 59/128/37 61/129/37 63/130/37
